<?xml version="1.0" encoding="UTF-8" standalone="no"?><svg xmlns="http://www.w3.org/2000/svg" xmlns:sodipodi="http://sodipodi.sourceforge.net/DTD/sodipodi-0.dtd" xmlns:inkscape="http://www.inkscape.org/namespaces/inkscape" id="Layer_1" x="0px" y="0px" viewBox="0 0 24 24" sodipodi:docname="url.svg" width="24" height="24" inkscape:version="0.92.3 (2405546, 2018-03-11)"><sodipodi:namedview pagecolor="#ffffff" bordercolor="#666666" borderopacity="1" objecttolerance="10" gridtolerance="10" guidetolerance="10" inkscape:pageopacity="0" inkscape:pageshadow="2" inkscape:window-width="999" inkscape:window-height="830" id="namedview9" showgrid="false" inkscape:zoom="7.375" inkscape:cx="16" inkscape:cy="16" inkscape:window-x="0" inkscape:window-y="0" inkscape:window-maximized="0" inkscape:current-layer="Layer_1"/><style id="style2">.st0{fill:#3BB2D4;}</style><g id="g6" transform="matrix(.7581 0 0 .76003 -.13 -.13)"><path class="st0" d="M31.7 13.9C30.8 6.9 25.1 1.2 18 .3 7.7-1-1 7.7.3 18c.9 7 6.6 12.7 13.6 13.6C24.3 33 33 24.3 31.7 13.9zm-19.3 3.8l-1.5-1.5c-1.4-1.4-1.4-3.7 0-5.1l.2-.2c1.4-1.4 3.7-1.4 5.1 0l.2.3-.6.5-.6.6-.2-.2c-.8-.8-2-.8-2.8 0l-.2.2c-.8.8-.8 2 0 2.8l1.5 1.5c.8.8 2 .8 2.8 0l1.1-1.1 1.1 1.1-1.1 1.1c-1.3 1.4-3.6 1.4-5 0zm8.7 3.2l-.2.2c-1.4 1.4-3.7 1.4-5.1 0l-.2-.2 1.1-1.2.2.2c.8.8 2 .8 2.8 0l.2-.2c.8-.8.8-2 0-2.8l-1.5-1.5c-.8-.8-2-.8-2.8 0l-1.2 1.2-1.1-1.2 1.2-1.2c1.4-1.4 3.7-1.4 5.1 0l1.5 1.5c1.4 1.5 1.4 3.8 0 5.2z" id="path4" inkscape:connector-curvature="0" style="fill:#3bb2d4"/></g></svg>