<?xml version="1.0" encoding="UTF-8" standalone="no"?><svg xmlns="http://www.w3.org/2000/svg" xmlns:sodipodi="http://sodipodi.sourceforge.net/DTD/sodipodi-0.dtd" xmlns:inkscape="http://www.inkscape.org/namespaces/inkscape" id="Layer_1" x="0px" y="0px" viewBox="0 0 24 24" sodipodi:docname="icon.svg" width="24" height="24" inkscape:version="0.92.3 (2405546, 2018-03-11)"><sodipodi:namedview pagecolor="#ffffff" bordercolor="#666666" borderopacity="1" objecttolerance="10" gridtolerance="10" guidetolerance="10" inkscape:pageopacity="0" inkscape:pageshadow="2" inkscape:window-width="732" inkscape:window-height="480" id="namedview9" showgrid="false" inkscape:zoom="7.375" inkscape:cx="16" inkscape:cy="16" inkscape:window-x="0" inkscape:window-y="0" inkscape:window-maximized="0" inkscape:current-layer="Layer_1"/><style id="style2">.st0{fill:#3BB2D4;}</style><g id="g6" transform="matrix(.7581 0 0 .76003 -.13 -.13)" inkscape:export-xdpi="96" inkscape:export-ydpi="96"><path class="st0" d="M31.7 13.9C30.8 6.9 25.1 1.2 18 .3 7.7-1-1 7.7.3 18c.9 7 6.6 12.7 13.6 13.6C24.3 33 33 24.3 31.7 13.9zm-18.6 8c.2.3.2.6 0 .9-.2.3-.6.3-.9 0L10.5 21l-1.7 1.7c-.4.3-.8.3-1 .1-.2-.3-.2-.7 0-.9l1.7-1.7-1.7-1.7c-.2-.2-.2-.6 0-.9.2-.3.6-.3.9 0l1.7 1.7 1.7-1.7c.2-.3.6-.3.9 0 .3.3.3.6 0 .9l-1.7 1.7zm.5-11.8l-2.9 3.4c-.1.1-.3.2-.4.2-.2 0-.3 0-.4-.2l-2.2-1.9c-.3-.2-.3-.6-.1-.9.2-.3.6-.3.9-.1l1.7 1.5 2.5-2.9c.2-.3.6-.3.9-.1.2.3.3.7 0 1zm10.2 10.7h-7.1c-.4 0-.6-.3-.6-.6 0-.4.3-.6.6-.6h7.1c.3 0 .6.3.6.6s-.3.6-.6.6zm.2-8.5h-7.1c-.3 0-.6-.3-.6-.6s.3-.6.6-.6H24c.3 0 .6.3.6.6s-.3.6-.6.6z" id="path4" inkscape:connector-curvature="0" style="fill:#3bb2d4"/></g></svg>