<?xml version="1.0" encoding="UTF-8" standalone="no"?><svg xmlns="http://www.w3.org/2000/svg" xmlns:sodipodi="http://sodipodi.sourceforge.net/DTD/sodipodi-0.dtd" xmlns:inkscape="http://www.inkscape.org/namespaces/inkscape" id="Layer_1" x="0px" y="0px" viewBox="0 0 24 24" sodipodi:docname="icon.svg" width="24" height="24" inkscape:version="0.92.3 (2405546, 2018-03-11)"><sodipodi:namedview pagecolor="#ffffff" bordercolor="#666666" borderopacity="1" objecttolerance="10" gridtolerance="10" guidetolerance="10" inkscape:pageopacity="0" inkscape:pageshadow="2" inkscape:window-width="1208" inkscape:window-height="823" id="namedview11" showgrid="false" inkscape:zoom="7.375" inkscape:cx="16" inkscape:cy="16" inkscape:window-x="0" inkscape:window-y="0" inkscape:window-maximized="0" inkscape:current-layer="Layer_1"/><style id="style2">.st0{fill:#3BB2D4;}</style><g id="g8" transform="matrix(.7595 0 0 .7595 -.152 -.152)"><path class="st0" d="M16 13.1c1.6 0 2.9-1.3 2.9-2.9 0-1.6-1.3-2.9-2.9-2.9-1.6 0-2.9 1.3-2.9 2.9 0 1.6 1.3 2.9 2.9 2.9z" id="path4" inkscape:connector-curvature="0" style="fill:#3bb2d4"/><path class="st0" d="M16 .2C7.3.2.2 7.3.2 16c0 8.7 7.1 15.8 15.8 15.8 8.7 0 15.8-7.1 15.8-15.8C31.8 7.3 24.7.2 16 .2zm0 6.6c1.9 0 3.5 1.5 3.5 3.5 0 1.9-1.5 3.5-3.5 3.5-1.9 0-3.5-1.5-3.5-3.5s1.6-3.5 3.5-3.5zm5.5 16.1h-.1v1.9c-1.5 0-3.1.1-4.6.3h-.5v-5.4h.2c1.7-.3 3.4-.4 5.1-.5-.2.7-.4 1.3-.6 2h-.3c-.3 0-.5.2-.5.4 0 .3.2.5.5.6h.5c.7-.4 1.3-.8 2-1.3-.4-1.2-.9-2.7-1.3-4.3v-.1c-.1-.4-.2-.8-.2-.9-.1-.4-.7-.5-.8-.6-1.6-.1-3.3-.2-4.9-.2-1.6 0-3.3.1-4.9.2-.1 0-.7.2-.8.6 0 .1-.1.5-.2 1-.3 1.5-.8 3.1-1.3 4.3.7.4 1.3.8 2 1.3h.5c.3 0 .5-.3.5-.6s-.2-.5-.5-.4H11c-.2-.6-.4-1.3-.6-2 1.7.1 3.4.2 5.1.5h.2v5.4h-.6V25c-1.5-.2-3.1-.3-4.6-.3v-1.9h-.2c-.8-.5-1.7-1-2.5-1.5 0-.1.1-.2.1-.3.4-.9 1-2.9 1.3-4.4.2-.8.2-1 .2-1.1.3-.9 1.3-1.1 1.4-1.1 3.3-.3 6.6-.3 9.8 0 .1 0 1.2.2 1.5 1.1 0 .1.1.3.2 1.1.3 1.5.9 3.6 1.3 4.4 0 .1.1.2.1.3-.5.6-1.4 1.1-2.2 1.6z" id="path6" inkscape:connector-curvature="0" style="fill:#3bb2d4"/></g></svg>