<?xml version="1.0" encoding="UTF-8" standalone="no"?><svg xmlns="http://www.w3.org/2000/svg" xmlns:sodipodi="http://sodipodi.sourceforge.net/DTD/sodipodi-0.dtd" xmlns:inkscape="http://www.inkscape.org/namespaces/inkscape" id="Layer_1" x="0px" y="0px" viewBox="0 0 24 24" sodipodi:docname="folder.svg" width="24" height="24" inkscape:version="0.92.3 (2405546, 2018-03-11)"><sodipodi:namedview pagecolor="#ffffff" bordercolor="#666666" borderopacity="1" objecttolerance="10" gridtolerance="10" guidetolerance="10" inkscape:pageopacity="0" inkscape:pageshadow="2" inkscape:window-width="732" inkscape:window-height="480" id="namedview13" showgrid="false" inkscape:zoom="7.375" inkscape:cx="16" inkscape:cy="16" inkscape:window-x="0" inkscape:window-y="0" inkscape:window-maximized="0" inkscape:current-layer="Layer_1"/><style id="style2">.st0{fill:#3BB2D4;}</style><g id="g10" transform="matrix(.7595 0 0 .7595 -.152 -.152)" inkscape:export-xdpi="96" inkscape:export-ydpi="96"><path class="st0" d="M14.4 8H10c-.4 0-.8.2-1.1.5l-.6.8h7.8l-.6-.8c-.3-.3-.7-.5-1.1-.5z" id="path4" inkscape:connector-curvature="0" style="fill:#3bb2d4"/><path class="st0" d="M23.3 11.8H8.7c-.8 0-1.4.6-1.4 1.4v8c0 .8.6 1.4 1.4 1.4h14.7c.8 0 1.4-.6 1.4-1.4v-8c0-.7-.7-1.4-1.5-1.4z" id="path6" inkscape:connector-curvature="0" style="fill:#3bb2d4"/><path class="st0" d="M16 .2C7.3.2.2 7.3.2 16c0 8.7 7.1 15.8 15.8 15.8 8.7 0 15.8-7.1 15.8-15.8C31.8 7.3 24.7.2 16 .2zM9.9 7h4.6c.7 0 1.3.3 1.7.8l2 2.5H8c-.5 0-1 .2-1.3.6l-.5.6c0-.8.2-1.6.7-2.2l1.2-1.5c.5-.5 1.1-.8 1.8-.8zm13.7 16.7H8.4c-1.2 0-2.1-1-2.1-2.1V13c0-1.2 1-2.1 2.1-2.1h15.3c1.2 0 2.1 1 2.1 2.1v8.6c0 1.1-1 2.1-2.2 2.1z" id="path8" inkscape:connector-curvature="0" style="fill:#3bb2d4"/></g></svg>