<?xml version="1.0" encoding="UTF-8" standalone="no"?>
<svg
   xmlns:dc="http://purl.org/dc/elements/1.1/"
   xmlns:cc="http://creativecommons.org/ns#"
   xmlns:rdf="http://www.w3.org/1999/02/22-rdf-syntax-ns#"
   xmlns:svg="http://www.w3.org/2000/svg"
   xmlns="http://www.w3.org/2000/svg"
   xmlns:sodipodi="http://sodipodi.sourceforge.net/DTD/sodipodi-0.dtd"
   xmlns:inkscape="http://www.inkscape.org/namespaces/inkscape"
   id="Layer_1"
   x="0px"
   y="0px"
   viewBox="0 0 256 256"
   sodipodi:docname="mp3-24.svg"
   width="256"
   height="256"
   inkscape:version="0.92.3 (2405546, 2018-03-11)"
   version="1.1"
   inkscape:export-filename="\\192.168.4.2\Asghari\ahmad (shareapp)\Desktop\moodle extension\My Moodle\pix\f\mp3-32.png"
   inkscape:export-xdpi="96"
   inkscape:export-ydpi="96">
  <metadata
     id="metadata10">
    <rdf:RDF>
      <cc:Work
         rdf:about="">
        <dc:format>image/svg+xml</dc:format>
        <dc:type
           rdf:resource="http://purl.org/dc/dcmitype/StillImage" />
        <dc:title></dc:title>
      </cc:Work>
    </rdf:RDF>
  </metadata>
  <defs
     id="defs8" />
  <sodipodi:namedview
     pagecolor="#ffffff"
     bordercolor="#666666"
     borderopacity="1"
     objecttolerance="10"
     gridtolerance="10"
     guidetolerance="10"
     inkscape:pageopacity="0"
     inkscape:pageshadow="2"
     inkscape:window-width="1234"
     inkscape:window-height="1020"
     id="namedview11"
     showgrid="false"
     inkscape:zoom="7.375"
     inkscape:cx="-7.1186441"
     inkscape:cy="-6.9502952"
     inkscape:window-x="1982"
     inkscape:window-y="6"
     inkscape:window-maximized="0"
     inkscape:current-layer="Layer_1" />
  <style
     id="style2">.st0{fill:#3BB2D4;}</style>
  <g
     id="g8"
     transform="matrix(8.1012658,0,0,8.1012658,-1.6202536,-1.6202536)"
     inkscape:export-xdpi="96"
     inkscape:export-ydpi="96">
    <g
       id="g6">
      <path
         class="st0"
         d="M 16,0.2 C 7.2,0.2 0.2,7.2 0.2,16 c 0,8.8 7,15.8 15.8,15.8 8.8,0 15.8,-7 15.8,-15.8 C 31.8,7.2 24.8,0.2 16,0.2 Z m 1.7,22.5 c 0,0.3 -0.3,0.5 -0.6,0.3 L 12,19.3 c -0.1,0 -0.1,-0.1 -0.2,-0.1 h -5 C 6.6,19.2 6.4,19 6.4,18.8 v -6 c 0,-0.2 0.2,-0.4 0.4,-0.4 h 5.4 c 0.1,0 0.1,0 0.2,-0.1 l 4.7,-3.4 c 0.2,-0.2 0.6,0 0.6,0.3 z m 1.7,-4.1 c 1,-0.6 1.5,-1.7 1.5,-2.9 0,-1.2 -0.6,-2.2 -1.5,-2.9 -0.3,-0.2 -0.4,-0.7 -0.2,-1 0.2,-0.3 0.7,-0.4 1,-0.2 1.3,0.9 2.1,2.4 2.1,4 0,1.6 -0.8,3.1 -2.1,4 -0.1,0.1 -0.3,0.1 -0.4,0.1 -0.2,0 -0.4,-0.1 -0.6,-0.3 -0.2,-0.1 -0.1,-0.6 0.2,-0.8 z m 0.8,4.8 H 20 c -0.3,0 -0.6,-0.2 -0.7,-0.5 -0.1,-0.4 0.1,-0.8 0.4,-0.9 2.7,-0.9 4.6,-3.4 4.6,-6.3 0,-2.9 -1.9,-5.5 -4.7,-6.3 C 19.2,9.3 19,8.9 19.1,8.5 19.2,8.1 19.6,7.9 20,8 c 3.4,1 5.7,4.2 5.7,7.7 0,3.5 -2.2,6.6 -5.5,7.7 z"
         id="path4"
         inkscape:connector-curvature="0"
         style="fill:#3bb2d4" />
    </g>
  </g>
</svg>
