<?xml version="1.0" encoding="UTF-8" standalone="no"?><svg xmlns="http://www.w3.org/2000/svg" xmlns:sodipodi="http://sodipodi.sourceforge.net/DTD/sodipodi-0.dtd" xmlns:inkscape="http://www.inkscape.org/namespaces/inkscape" id="Layer_1" x="0px" y="0px" viewBox="0 0 24 24" sodipodi:docname="feedback.svg" width="24" height="24" inkscape:version="0.92.3 (2405546, 2018-03-11)" inkscape:export-filename="\\192.168.4.2\Asghari\ahmad (shareapp)\Desktop\moodle extension\My Moodle\mod\feedback\pix\feedback.png" inkscape:export-xdpi="93.584908" inkscape:export-ydpi="93.584908"><sodipodi:namedview pagecolor="#ffffff" bordercolor="#666666" borderopacity="1" objecttolerance="10" gridtolerance="10" guidetolerance="10" inkscape:pageopacity="0" inkscape:pageshadow="2" inkscape:window-width="1433" inkscape:window-height="973" id="namedview11" showgrid="false" inkscape:zoom="7.375" inkscape:cx="16" inkscape:cy="16" inkscape:window-x="0" inkscape:window-y="0" inkscape:window-maximized="0" inkscape:current-layer="Layer_1"/><style id="style2">.st0{fill:#3BB2D4;}</style><g id="g8" transform="matrix(.7595 0 0 .7595 -.152 -.152)"><g id="g6"><path class="st0" d="M9.6 17.7v6.9h1.9v-6.9zm1.2 6.3c-.1.1-.2.1-.3.1-.1 0-.2 0-.3-.1-.1-.1-.1-.2-.1-.3 0-.1 0-.2.1-.3.2-.2.5-.2.6 0 .1.1.1.2.1.3 0 .1 0 .3-.1.3zm-1.2-6.3v6.9h1.9v-6.9zm1.2 6.3c-.1.1-.2.1-.3.1-.1 0-.2 0-.3-.1-.1-.1-.1-.2-.1-.3 0-.1 0-.2.1-.3.2-.2.5-.2.6 0 .1.1.1.2.1.3 0 .1 0 .3-.1.3zM16 .2C7.2.2.2 7.2.2 16s7 15.8 15.8 15.8 15.8-7 15.8-15.8S24.8.2 16 .2zm8.5 19.3c0 .5-.3 1-.7 1.3.2.3.4.6.4 1 0 .5-.3 1-.7 1.3.2.3.4.6.4 1 0 .9-.7 1.6-1.6 1.6h-6.8s-1.2-.1-1.9-1.2c-.2.1-.5-.1-.5-.3-.1-.2.1-.5.3-.5.3-.1.8 0 1 .4.4.6 1 .7 1.1.8h6.8c.4 0 .7-.3.7-.7 0-.4-.3-.7-.7-.7H22c-.3 0-.5-.2-.5-.5s.2-.4.5-.4h.7c.4 0 .7-.3.7-.7 0-.4-.3-.7-.7-.7h-.4c-.3 0-.5-.2-.5-.5s.2-.4.5-.4h.7c.4 0 .7-.3.7-.7 0-.4-.3-.7-.7-.7h-.4c-.2 0-.4-.2-.4-.4s.2-.4.4-.4h.5c.4 0 .7-.3.7-.7 0-.4-.3-.7-.7-.7h-2.9c-.5 0-.9-.2-1.2-.4-.4-.4-.4-.9-.4-.9V13c0-.1 0-1.2-1-1.3h-.7v2.2c0 1-.5 1.3-.6 1.4 0 0-1.3.7-1.7 2.1-.3 1.1-1 1.3-1.1 1.4H12.7V25c0 .3-.2.5-.5.5H9.1c-.2 0-.4-.2-.4-.4H7c-.3 0-.4-.2-.4-.5s.2-.5.4-.5h1.7V18H7c-.3 0-.4-.2-.4-.5s.2-.5.4-.5h1.7c0-.3.2-.4.5-.4H12c.3 0 .5.2.5.4v.4h.6c.1-.1.3-.3.5-.8.5-1.6 1.8-2.5 2.1-2.6 0 0 .2-.2.2-.7v-2.1c0-.2 0-.4.2-.6.3-.3.8-.4 1.5-.4 1.5.1 1.9 1.5 1.9 2.2v2.4c0 .2.1.4.6.4H23c.9 0 1.6.7 1.6 1.6 0 .5-.2.9-.5 1.2.2.6.4 1 .4 1.5zM14.7 9.4c-.3 0-.5-.2-.5-.5s.2-.4.5-.4h.1c.3 0 .5.2.5.4s-.3.5-.6.5zm1.9-.4c0-.3.2-.4.5-.4h.1c.3 0 .5.2.5.4s-.2.5-.5.5h-.1c-.3-.1-.5-.3-.5-.5zM19 9c0-.3.2-.4.5-.4.3-.1.5.1.5.4 0 .3-.2.5-.5.5-.2-.1-.5-.3-.5-.5zm6.5 2.8c0 .7-.5 1.2-1.2 1.2h-.6l-2.2 1.7c-.1 0-.2.1-.3.1H21c-.2-.1-.3-.2-.3-.4V13h-.3c-.3 0-.4-.2-.4-.5s.2-.5.4-.5h.8c.3 0 .5.2.5.5v.9l1.6-1.2c.1-.1.2-.1.3-.1h.8c.2 0 .3-.1.3-.3V7.5c0-.2-.1-.3-.3-.3H12.2c-.2 0-.3.1-.3.3v4.3c0 .2.1.3.3.3h2.2c.3 0 .5.2.5.5s-.2.4-.5.4h-2.2c-.7 0-1.2-.5-1.2-1.2V7.5c0-.7.5-1.2 1.2-1.2h12.1c.7 0 1.2.5 1.2 1.2zm-4-2.8c0-.3.2-.4.5-.4.2 0 .5.2.5.4s-.3.4-.5.4h-.1c-.2 0-.4-.2-.4-.4zM9.6 24.6h1.9v-6.9H9.6zm.6-1.2c.2-.2.5-.2.6 0 .1.1.1.2.1.3 0 .1 0 .2-.1.3-.1.1-.2.1-.3.1-.1 0-.2 0-.3-.1-.1-.1-.1-.2-.1-.3 0-.1 0-.2.1-.3z" id="path4" inkscape:connector-curvature="0" style="fill:#3bb2d4"/></g></g></svg>