<?xml version="1.0" encoding="UTF-8" standalone="no"?><svg xmlns="http://www.w3.org/2000/svg" xmlns:sodipodi="http://sodipodi.sourceforge.net/DTD/sodipodi-0.dtd" xmlns:inkscape="http://www.inkscape.org/namespaces/inkscape" id="Layer_1" x="0px" y="0px" viewBox="0 0 24 24" sodipodi:docname="cheklist.svg" width="24" height="24" inkscape:version="0.92.3 (2405546, 2018-03-11)"><sodipodi:namedview pagecolor="#ffffff" bordercolor="#666666" borderopacity="1" objecttolerance="10" gridtolerance="10" guidetolerance="10" inkscape:pageopacity="0" inkscape:pageshadow="2" inkscape:window-width="1196" inkscape:window-height="965" id="namedview9" showgrid="false" inkscape:zoom="7.375" inkscape:cx="16" inkscape:cy="16" inkscape:window-x="164" inkscape:window-y="5" inkscape:window-maximized="0" inkscape:current-layer="Layer_1"/><style id="style2">.st0{fill:#3BB2D4;}</style><g id="g6" transform="matrix(.7581 0 0 .76003 -.13 -.13)" inkscape:export-xdpi="96" inkscape:export-ydpi="96"><path class="st0" d="M8.3 13.1v10.2h15.4V13.1zm6.8 7.7L14 22l-1.1-1.1-1.8-1.7 1.2-1.2 1.8 1.8 5.6-5.6 1.1 1.1zm-6.8-7.7v10.2h15.4V13.1zm6.8 7.7L14 22l-1.1-1.1-1.8-1.7 1.2-1.2 1.8 1.8 5.6-5.6 1.1 1.1zm-6.8-7.7v10.2h15.4V13.1zm6.8 7.7L14 22l-1.1-1.1-1.8-1.7 1.2-1.2 1.8 1.8 5.6-5.6 1.1 1.1zm-6.8-7.7v10.2h15.4V13.1zm6.8 7.7L14 22l-1.1-1.1-1.8-1.7 1.2-1.2 1.8 1.8 5.6-5.6 1.1 1.1zm16.6-6.9C30.8 6.9 25.1 1.2 18 .3 7.7-1-1 7.7.3 18c.9 7 6.6 12.7 13.6 13.6C24.3 33 33 24.3 31.7 13.9zM19.6 6.6c0-.1.1-.3.3-.3H21c.1 0 .3.1.3.3v3.7c0 .1-.1.3-.3.3h-1.2c-.1 0-.3-.1-.3-.3V6.6zm-8.9 0c0-.1.1-.3.3-.3h1.2c.1 0 .3.1.3.3v3.7c0 .1-.1.3-.3.3H11c-.1 0-.3-.1-.3-.3zM26 21.8c0 2.2-1.8 3.9-3.9 3.9H9.9c-2.1 0-3.9-1.8-3.9-3.9v-9.2c0-2.2 1.8-3.9 3.9-3.9h.3v1.7c0 .5.2.7.6.7h1.4c.5 0 .6-.3.6-.7V8.6h6.3v1.7c0 .5.2.7.6.7h1.4c.5 0 .6-.3.6-.7V8.6h.3c2.1 0 3.9 1.8 3.9 3.9v9.3zM8.3 23.2h15.4V13.1H8.3zm4-5.3l1.8 1.8 5.6-5.6 1.1 1.1-5.6 5.6L14 22l-1.1-1.1-1.8-1.7zm-4-4.8v10.2h15.4V13.1zm6.8 7.7L14 22l-1.1-1.1-1.8-1.7 1.2-1.2 1.8 1.8 5.6-5.6 1.1 1.1zm-6.8-7.7v10.2h15.4V13.1zm6.8 7.7L14 22l-1.1-1.1-1.8-1.7 1.2-1.2 1.8 1.8 5.6-5.6 1.1 1.1z" id="path4" inkscape:connector-curvature="0" style="fill:#3bb2d4"/></g></svg>