<?xml version="1.0" encoding="UTF-8" standalone="no"?><svg xmlns="http://www.w3.org/2000/svg" xmlns:sodipodi="http://sodipodi.sourceforge.net/DTD/sodipodi-0.dtd" xmlns:inkscape="http://www.inkscape.org/namespaces/inkscape" id="Layer_1" x="0px" y="0px" viewBox="0 0 24 24" sodipodi:docname="icon.svg" width="24" height="24" inkscape:version="0.92.3 (2405546, 2018-03-11)"><sodipodi:namedview pagecolor="#ffffff" bordercolor="#666666" borderopacity="1" objecttolerance="10" gridtolerance="10" guidetolerance="10" inkscape:pageopacity="0" inkscape:pageshadow="2" inkscape:window-width="1070" inkscape:window-height="767" id="namedview11" showgrid="false" inkscape:zoom="7.375" inkscape:cx="16" inkscape:cy="16" inkscape:window-x="0" inkscape:window-y="0" inkscape:window-maximized="0" inkscape:current-layer="Layer_1"/><style id="style2">.st0{fill:#3BB2D4;}</style><g id="g8" transform="matrix(.7595 0 0 .7595 -.152 -.152)"><g id="g6"><path class="st0" d="M16 .2C7.2.2.2 7.2.2 16s7 15.8 15.8 15.8 15.8-7 15.8-15.8S24.8.2 16 .2zm11 15.3c0 .7-.6 1.3-1.3 1.3h-5.6v2.6c0 .7-.6 1.3-1.3 1.3h-6.6L8 24.4c-.1.1-.2.1-.3.1h-.2c-.2-.1-.3-.3-.3-.4l-.1-3.2h-.8c-.7 0-1.3-.6-1.3-1.3V13c0-.7.6-1.3 1.3-1.3h5.6V8.9c0-.7.6-1.3 1.3-1.3h12.4c.7 0 1.3.6 1.3 1.3v6.6zm-1.3-7H13.3c-.2 0-.3.1-.3.3v2.6h5.8c.7 0 1.3.6 1.3 1.3v3h5.6c.2 0 .3-.2.3-.3V8.9c0-.2-.2-.4-.3-.4zm-13.8 7v-3H6.3c-.2 0-.3.1-.3.3v6.6c0 .2.1.3.3.3h1.3c.3 0 .5.2.5.5v2.6l3.4-3c.1-.1.2-.1.3-.1h6.8c.2 0 .3-.1.3-.3v-2.6h-5.8c-.6 0-1.2-.6-1.2-1.3zm6.8-3h-5.8v3c0 .2.2.3.3.3H19v-3c.1-.2-.1-.3-.3-.3z" id="path4" inkscape:connector-curvature="0" style="fill:#3bb2d4"/></g></g></svg>