<?xml version="1.0" encoding="UTF-8" standalone="no"?><svg xmlns="http://www.w3.org/2000/svg" xmlns:sodipodi="http://sodipodi.sourceforge.net/DTD/sodipodi-0.dtd" xmlns:inkscape="http://www.inkscape.org/namespaces/inkscape" id="Layer_1" x="0px" y="0px" viewBox="0 0 1000 1000" sodipodi:docname="icon.svg" width="1000" height="1000" inkscape:export-filename="C:\Users\work\Desktop\temp\backup\Plugins\Themes\essential\pix_plugins\mod\hvp\icon.png" inkscape:export-xdpi="96" inkscape:export-ydpi="96" inkscape:version="0.92.3 (2405546, 2018-03-11)"><sodipodi:namedview pagecolor="#ffffff" bordercolor="#666666" borderopacity="1" objecttolerance="10" gridtolerance="10" guidetolerance="10" inkscape:pageopacity="0" inkscape:pageshadow="2" inkscape:window-width="1326" inkscape:window-height="967" id="namedview9" showgrid="false" inkscape:zoom="0.23046875" inkscape:cx="132.60301" inkscape:cy="-63.668749" inkscape:window-x="0" inkscape:window-y="0" inkscape:window-maximized="0" inkscape:current-layer="Layer_1"/><style id="style2">.st0{fill:#3BB2D4;}</style><g id="g6" transform="translate(-6.33 -6.33) scale(31.64557)"><path class="st0" d="M23.7 13.1c-.5-.2-1.1-.1-1.7-.1v2.3h1.1c.2 0 .4 0 .6-.1.5-.1.9-.5.9-1-.1-.6-.4-1-.9-1.1zm0 0c-.5-.2-1.1-.1-1.7-.1v2.3h1.1c.2 0 .4 0 .6-.1.5-.1.9-.5.9-1-.1-.6-.4-1-.9-1.1zM16 .2C7.3.2.2 7.3.2 16c0 8.7 7.1 15.8 15.8 15.8 8.7 0 15.8-7.1 15.8-15.8C31.8 7.3 24.7.2 16 .2zm.5 18.6c-.6.1-1.1-.1-1.4-.6-.1-.1-.2-.2-.3-.2-.8.1-1.7.2-2.5.4h-.1c.2.6.5 1.2.9 1.6.4.5 1 .7 1.6 1h-3.8v-3.8H7.5V21H4.4V10.9h3.2v4.3H11v-4.3h2.6c-.4 1.8-.8 3.7-1.3 5.5.3 0 .6.1.9.1.5.1 1.1.1 1.7.2.1 0 .2 0 .3-.1.3-.5 1-.8 1.6-.6.6.2 1 .8.9 1.5-.1.7-.6 1.3-1.2 1.3zm8.7-1.6c-.4.1-.9.1-1.4.1h-1.9v3.8h-3.7c.1 0 .1-.1.2-.1.9-.3 1.5-.9 1.9-1.7.5-1.1.6-2.2.1-3.3-.5-1.1-1.5-1.6-2.7-1.8-.8-.1-1.6 0-2.3.3h-.1c0-.2.1-.4.1-.5.1-.3.1-.6.2-.9 0-.1.1-.2.2-.2h4.4v-2.1h4c.5 0 1 .1 1.4.2 1.1.4 1.7 1.2 1.9 2.3.1.6.1 1.1-.1 1.7-.2 1.3-1 2-2.2 2.2zm-1.5-4.1c-.5-.2-1.1-.1-1.7-.1v2.3h1.1c.2 0 .4 0 .6-.1.5-.1.9-.5.9-1-.1-.6-.4-1-.9-1.1z" id="path4" inkscape:connector-curvature="0" style="fill:#3bb2d4"/></g></svg>