<?xml version="1.0" encoding="UTF-8" standalone="no"?><svg xmlns="http://www.w3.org/2000/svg" xmlns:sodipodi="http://sodipodi.sourceforge.net/DTD/sodipodi-0.dtd" xmlns:inkscape="http://www.inkscape.org/namespaces/inkscape" id="Layer_1" x="0px" y="0px" viewBox="0 0 24 24" sodipodi:docname="icon.svg" width="24" height="24" inkscape:version="0.92.3 (2405546, 2018-03-11)"><sodipodi:namedview pagecolor="#ffffff" bordercolor="#666666" borderopacity="1" objecttolerance="10" gridtolerance="10" guidetolerance="10" inkscape:pageopacity="0" inkscape:pageshadow="2" inkscape:window-width="732" inkscape:window-height="480" id="namedview9" showgrid="false" inkscape:zoom="7.375" inkscape:cx="16" inkscape:cy="16" inkscape:window-x="0" inkscape:window-y="0" inkscape:window-maximized="0" inkscape:current-layer="Layer_1"/><style id="style2">.st0{fill:#3BB2D4;}</style><g id="g6" transform="matrix(.7595 0 0 .7595 -.152 -.152)" inkscape:export-xdpi="96" inkscape:export-ydpi="96"><path class="st0" d="M16 .2C7.3.2.2 7.3.2 16c0 8.7 7.1 15.8 15.8 15.8 8.7 0 15.8-7.1 15.8-15.8C31.8 7.3 24.7.2 16 .2zm3.2 24.5c-.1.1-.4.3-.6.4-1.5.8-3.3 1.2-5.6 1.2-2.2 0-4.1-.4-5.6-1.2-.2-.1-.5-.2-.6-.4-.2-.2-.1-.1-.1-.5-.1-1.9 1.5-2 3-2.4.5-.1 1.5-.3 1.6-.7 0-.1.1-.3 0-.5 0-.1-.2-.3-.3-.5-.2-.3-.3-.6-.5-1-.1-.2-.1-.4-.1-.6 0-.1-.1-.2-.2-.3-.1-.1-.2-.2-.2-.3-.1-.2-.3-.6-.2-.8 0-.1.1-.2.3-.2-.3-2 .8-3.3 2.6-3.4 2-.1 3.6 1.3 3.2 3.4.1 0 .2.1.2.2.1.2-.2.7-.2.9-.1.3-.3.4-.4.5-.2.8-.4 1.4-.8 1.9v.7c.1.2.5.4.7.4 1.7.5 4 .3 4 2.6-.1.4-.1.3-.2.6zm6.2-12.2c0 .2-.1.4-.4.5h-5.9l-1.8 1.3.3-1.3h-2.4c-.3 0-.5-.2-.5-.5V6.3c0-.3.2-.5.5-.5h9.7c.3 0 .5.3.5.5v6.2z" id="path4" inkscape:connector-curvature="0" style="fill:#3bb2d4"/></g></svg>